HIERARCHY
ROOT Model
{
	OFFSET 0 0 0
	CHANNELS 6 Xposition Yposition Zposition Zrotation Xrotation Yrotation
	JOINT Model1
	{
		OFFSET 0 -2.25479 2.99384
		CHANNELS 3 Zrotation Xrotation Yrotation
		JOINT Model2
		{
			OFFSET 12.111 0 0
			CHANNELS 3 Zrotation Xrotation Yrotation
			JOINT Model3
			{
				OFFSET 11.5502 0 0
				CHANNELS 3 Zrotation Xrotation Yrotation
				JOINT Model4
				{
					OFFSET 11.781 0 0
					CHANNELS 3 Zrotation Xrotation Yrotation
					JOINT Model5
					{
						OFFSET 20.0601 0 0
						CHANNELS 3 Zrotation Xrotation Yrotation
						JOINT Model6
						{
							OFFSET 11.1962 0 0
							CHANNELS 3 Zrotation Xrotation Yrotation
							End Site
							{
								OFFSET 0 0 0
							}
						}
					}
					JOINT Model7
					{
						OFFSET 10.8223 0.417534 3.51114
						CHANNELS 3 Zrotation Xrotation Yrotation
						JOINT Model8
						{
							OFFSET -6.07944 0 0
							CHANNELS 3 Zrotation Xrotation Yrotation
							JOINT Model9
							{
								OFFSET -0.277405 10.39 -0.051239
								CHANNELS 3 Zrotation Xrotation Yrotation
								JOINT Model10
								{
									OFFSET -3.43909 -0.282043 1.86679
									CHANNELS 3 Zrotation Xrotation Yrotation
									JOINT Model11
									{
										OFFSET 13.0269 0 0
										CHANNELS 3 Zrotation Xrotation Yrotation
										JOINT Model12
										{
											OFFSET 10.8866 0 0
											CHANNELS 3 Zrotation Xrotation Yrotation
											JOINT Model13
											{
												OFFSET 16.7317 0 0
												CHANNELS 3 Zrotation Xrotation Yrotation
												JOINT Model14
												{
													OFFSET 11.8292 0 0
													CHANNELS 3 Zrotation Xrotation Yrotation
													JOINT Model15
													{
														OFFSET 4.82751 -3.73566 -0.836517
														CHANNELS 3 Zrotation Xrotation Yrotation
														JOINT Model16
														{
															OFFSET 3.75311 -0.0582886 -0.0186462
															CHANNELS 3 Zrotation Xrotation Yrotation
															JOINT Model17
															{
																OFFSET 2.88687 0.0192337 0.014801
																CHANNELS 3 Zrotation Xrotation Yrotation
																End Site
																{
																	OFFSET 0 0 0
																}
															}
														}
													}
													JOINT Model18
													{
														OFFSET 9.72195 -3.06458 0.23877
														CHANNELS 3 Zrotation Xrotation Yrotation
														JOINT Model19
														{
															OFFSET 4.6113 0 0
															CHANNELS 3 Zrotation Xrotation Yrotation
															JOINT Model20
															{
																OFFSET 2.89691 -7.62939e-006 0
																CHANNELS 3 Zrotation Xrotation Yrotation
																End Site
																{
																	OFFSET 0 0 0
																}
															}
														}
													}
													JOINT Model21
													{
														OFFSET 9.54431 -0.745064 0.588928
														CHANNELS 3 Zrotation Xrotation Yrotation
														JOINT Model22
														{
															OFFSET 5.33978 0 0
															CHANNELS 3 Zrotation Xrotation Yrotation
															JOINT Model23
															{
																OFFSET 3.03619 7.62939e-006 0
																CHANNELS 3 Zrotation Xrotation Yrotation
																End Site
																{
																	OFFSET 0 0 0
																}
															}
														}
													}
													JOINT Model24
													{
														OFFSET 9.4776 1.51286 0.485107
														CHANNELS 3 Zrotation Xrotation Yrotation
														JOINT Model25
														{
															OFFSET 4.96136 7.62939e-006 0
															CHANNELS 3 Zrotation Xrotation Yrotation
															JOINT Model26
															{
																OFFSET 2.51965 0 0
																CHANNELS 3 Zrotation Xrotation Yrotation
																End Site
																{
																	OFFSET 0 0 0
																}
															}
														}
													}
													JOINT Model27
													{
														OFFSET 9.34247 3.34117 -0.239288
														CHANNELS 3 Zrotation Xrotation Yrotation
														JOINT Model28
														{
															OFFSET 3.28259 2.28882e-005 0
															CHANNELS 3 Zrotation Xrotation Yrotation
															JOINT Model29
															{
																OFFSET 2.12921 0 0
																CHANNELS 3 Zrotation Xrotation Yrotation
																End Site
																{
																	OFFSET 0 0 0
																}
															}
														}
													}
												}
											}
										}
									}
								}
							}
						}
					}
					JOINT Model30
					{
						OFFSET 10.8223 0.4179 -3.51108
						CHANNELS 3 Zrotation Xrotation Yrotation
						JOINT Model31
						{
							OFFSET 6.07944 0 0
							CHANNELS 3 Zrotation Xrotation Yrotation
							JOINT Model32
							{
								OFFSET 0.277405 -10.39 0.051239
								CHANNELS 3 Zrotation Xrotation Yrotation
								JOINT Model33
								{
									OFFSET 3.43909 0.282043 -1.86679
									CHANNELS 3 Zrotation Xrotation Yrotation
									JOINT Model34
									{
										OFFSET -13.0269 0 0
										CHANNELS 3 Zrotation Xrotation Yrotation
										JOINT Model35
										{
											OFFSET -10.8866 0 0
											CHANNELS 3 Zrotation Xrotation Yrotation
											JOINT Model36
											{
												OFFSET -16.7317 0 0
												CHANNELS 3 Zrotation Xrotation Yrotation
												JOINT Model37
												{
													OFFSET -11.8292 0 0
													CHANNELS 3 Zrotation Xrotation Yrotation
													JOINT Model38
													{
														OFFSET -4.82751 3.73566 0.836517
														CHANNELS 3 Zrotation Xrotation Yrotation
														JOINT Model39
														{
															OFFSET -3.75311 0.0582886 0.0186462
															CHANNELS 3 Zrotation Xrotation Yrotation
															JOINT Model40
															{
																OFFSET -2.8869 -0.0192337 -0.014801
																CHANNELS 3 Zrotation Xrotation Yrotation
																End Site
																{
																	OFFSET 0 0 0
																}
															}
														}
													}
													JOINT Model41
													{
														OFFSET -9.72198 3.06459 -0.23877
														CHANNELS 3 Zrotation Xrotation Yrotation
														JOINT Model42
														{
															OFFSET -4.61133 0 0
															CHANNELS 3 Zrotation Xrotation Yrotation
															JOINT Model43
															{
																OFFSET -2.89691 0 0
																CHANNELS 3 Zrotation Xrotation Yrotation
																End Site
																{
																	OFFSET 0 0 0
																}
															}
														}
													}
													JOINT Model44
													{
														OFFSET -9.54431 0.745064 -0.588928
														CHANNELS 3 Zrotation Xrotation Yrotation
														JOINT Model45
														{
															OFFSET -5.33978 0 0
															CHANNELS 3 Zrotation Xrotation Yrotation
															JOINT Model46
															{
																OFFSET -3.03619 -1.52588e-005 0
																CHANNELS 3 Zrotation Xrotation Yrotation
																End Site
																{
																	OFFSET 0 0 0
																}
															}
														}
													}
													JOINT Model47
													{
														OFFSET -9.4776 -1.51286 -0.485107
														CHANNELS 3 Zrotation Xrotation Yrotation
														JOINT Model48
														{
															OFFSET -4.96136 -1.52588e-005 0
															CHANNELS 3 Zrotation Xrotation Yrotation
															JOINT Model49
															{
																OFFSET -2.51965 0 0
																CHANNELS 3 Zrotation Xrotation Yrotation
																End Site
																{
																	OFFSET 0 0 0
																}
															}
														}
													}
													JOINT Model50
													{
														OFFSET -9.34247 -3.34118 0.239288
														CHANNELS 3 Zrotation Xrotation Yrotation
														JOINT Model51
														{
															OFFSET -3.28259 -1.90735e-005 0
															CHANNELS 3 Zrotation Xrotation Yrotation
															JOINT Model52
															{
																OFFSET -2.12921 0 0
																CHANNELS 3 Zrotation Xrotation Yrotation
																End Site
																{
																	OFFSET 0 0 0
																}
															}
														}
													}
												}
											}
										}
									}
								}
							}
						}
					}
				}
			}
		}
	}
	JOINT Model53
	{
		OFFSET 4.38025 -2.14632 -1.11517
		CHANNELS 3 Zrotation Xrotation Yrotation
		JOINT Model54
		{
			OFFSET 0 0 4.94998
			CHANNELS 3 Zrotation Xrotation Yrotation
			JOINT Model55
			{
				OFFSET 18.5642 0 0
				CHANNELS 3 Zrotation Xrotation Yrotation
				JOINT Model56
				{
					OFFSET 21.2884 0 0
					CHANNELS 3 Zrotation Xrotation Yrotation
					JOINT Model57
					{
						OFFSET 30.261 0 0
						CHANNELS 3 Zrotation Xrotation Yrotation
						JOINT Model58
						{
							OFFSET 11.7259 0 0
							CHANNELS 3 Zrotation Xrotation Yrotation
							JOINT Model59
							{
								OFFSET 10.682 0 0
								CHANNELS 3 Zrotation Xrotation Yrotation
								End Site
								{
									OFFSET 0 0 0
								}
							}
						}
					}
				}
			}
		}
	}
	JOINT Model60
	{
		OFFSET -4.38025 -2.14632 -1.11517
		CHANNELS 3 Zrotation Xrotation Yrotation
		JOINT Model61
		{
			OFFSET 0 0 -4.94998
			CHANNELS 3 Zrotation Xrotation Yrotation
			JOINT Model62
			{
				OFFSET -18.5642 0 0
				CHANNELS 3 Zrotation Xrotation Yrotation
				JOINT Model63
				{
					OFFSET -21.2884 0 0
					CHANNELS 3 Zrotation Xrotation Yrotation
					JOINT Model64
					{
						OFFSET -30.261 0 0
						CHANNELS 3 Zrotation Xrotation Yrotation
						JOINT Model65
						{
							OFFSET -11.7259 0 0
							CHANNELS 3 Zrotation Xrotation Yrotation
							JOINT Model66
							{
								OFFSET -10.682 0 0
								CHANNELS 3 Zrotation Xrotation Yrotation
								End Site
								{
									OFFSET 0 0 0
								}
							}
						}
					}
				}
			}
		}
	}
}
MOTION
Frames: 4
Frame Time: 0.033333
-322.593 165.718 0.455444 111.227 -2.27977 87.3261 -180 4.29621e-031 -90 3.6534 0.715747 -0.914617 7.31853 1.37123 -1.87319 7.31853 1.37166 -1.87325 16.2592 6.90925 -8.83537 -17.663 1.54096 20.4939 120.092 75.5343 58.4939 4.31716 -6.87694 -2.30378 -167.277 84.4999 48.8109 157.505 -4.62272 -32.2235 2.00146e-006 18.7438 3.22378e-005 -0.402417 3.62536 7.60248 5.61182e-007 5.5429 5.65997e-007 -2.18087 -0.00376713 0.198442 -72.0648 39.0385 39.3397 33.3638 2.10362 14.835 0.588947 0.308273 6.35287 -99.6409 81.413 100.35 -0.0181409 2.7642e-005 -0.117315 -0.124139 0.00241095 -0.799296 -79.8382 79.5773 80.5374 -0.000225776 -0.000221049 2.21705e-005 -0.000956227 0.000122724 -2.73531e-005 -66.7416 80.4058 67.2171 -0.000437132 1.58131e-005 -2.73453e-005 -0.000136604 -0.000109471 -5.46748e-005 -6.42159 81.2158 8.01779 -0.000218575 1.67062e-005 0.000212109 0.000901572 -0.000185075 -0.000218609 -59.9282 75.5373 58.5147 1.56074 -1.32493 -0.347027 -167.277 84.4999 48.8109 -162.842 -21.7889 -3.43498 9.32464e-006 -4.19546 2.83615e-005 -50.9886 17.8766 0.49618 -1.12512e-005 26.1549 5.79845e-006 19.6825 1.8505 10.6376 -72.0648 39.0385 39.3397 33.3638 2.10361 14.835 0.588946 0.308273 6.35287 -99.6409 81.413 100.35 -0.0181409 3.01558e-005 -0.117315 -0.124139 0.00241123 -0.799296 -79.8382 79.5773 80.5374 -0.000260644 -0.000218491 2.35959e-005 -0.000956224 0.000123097 -2.72863e-005 -66.7416 80.4058 67.2171 -0.00043713 1.49571e-005 -2.72962e-005 -0.0001366 -0.000109181 -5.46084e-005 -6.42159 81.2158 8.01779 -0.000218556 1.96735e-005 0.000212319 0.000901596 -0.000191118 -0.000218536 0.000811311 0.56661 89.91 8.17676 -11.9823 -11.9691 -2.14446e-006 -5.68625 -1.20414e-007 30.6577 4.72855 2.86529 1.95043e-007 7.04369 2.16855e-007 -64.747 21.1132 -13.1591 -35.4947 5.21543e-007 -8.9179e-008 -180 -0.566579 -90.09 3.58353 -6.53254 -13.1224 9.94418e-007 2.66623 -1.04033e-008 34.7642 -2.77308 1.76009 3.05376e-007 -4.22704 -2.65901e-007 -66.7791 17.9322 -10.9143 -35.4947 -2.57085e-008 1.83381e-008 
-322.651 165.736 0.483459 111.056 -2.25451 87.3946 -180 4.29621e-031 -90 3.61505 0.723633 -0.905681 7.24186 1.38819 -1.8554 7.24186 1.38862 -1.85545 15.8675 6.99901 -8.88975 -17.19 1.64212 20.6661 120.092 75.5343 58.4939 4.80233 -6.52215 -2.25775 -167.277 84.4999 48.8109 157.963 -4.97799 -31.8156 2.1934e-006 18.4201 3.21766e-005 -0.446491 3.99853 7.50849 5.55584e-007 6.10645 5.66565e-007 -2.14193 0.000720744 -0.0386793 -72.0648 39.0385 39.3397 33.3638 2.10362 14.835 0.588947 0.308273 6.35287 -99.6409 81.413 100.35 -0.0181409 2.7642e-005 -0.117315 -0.124139 0.00241095 -0.799296 -79.8382 79.5773 80.5374 -0.000225776 -0.000221049 2.21705e-005 -0.000956227 0.000122724 -2.73531e-005 -66.7416 80.4058 67.2171 -0.000437132 1.58131e-005 -2.73453e-005 -0.000136604 -0.000109471 -5.46748e-005 -6.42159 81.2158 8.01779 -0.000218575 1.67062e-005 0.000212109 0.000901572 -0.000185075 -0.000218609 -59.9282 75.5373 58.5147 1.47108 -1.39868 -0.354799 -167.277 84.4999 48.8109 -162.87 -21.8486 -3.52009 9.34298e-006 -4.23241 2.83628e-005 -50.9481 18.1878 0.496753 -1.1304e-005 26.6217 5.82194e-006 19.4266 1.86015 10.8362 -72.0648 39.0385 39.3397 33.3638 2.10361 14.835 0.588946 0.308273 6.35287 -99.6409 81.413 100.35 -0.0181409 3.01558e-005 -0.117315 -0.124139 0.00241123 -0.799296 -79.8382 79.5773 80.5374 -0.000260644 -0.000218491 2.35959e-005 -0.000956224 0.000123097 -2.72863e-005 -66.7416 80.4058 67.2171 -0.00043713 1.49571e-005 -2.72962e-005 -0.0001366 -0.000109181 -5.46084e-005 -6.42159 81.2158 8.01779 -0.000218556 1.96735e-005 0.000212319 0.000901596 -0.000191118 -0.000218536 0.000811311 0.56661 89.91 7.92657 -11.8636 -12.0088 -2.14411e-006 -5.52112 -1.2038e-007 30.715 4.60309 2.85554 1.95762e-007 6.8551 2.16768e-007 -64.8845 20.9181 -13.0136 -35.4947 5.20324e-007 -8.61213e-008 -180 -0.566579 -90.09 3.45131 -6.39621 -12.9435 9.94418e-007 2.66938 -1.04034e-008 34.7054 -2.84004 1.71795 3.04909e-007 -4.32732 -2.65936e-007 -66.8026 17.7804 -10.824 -35.4947 -2.4671e-008 1.77809e-008 
-322.706 165.741 0.497437 110.951 -2.29104 87.4269 -180 4.29621e-031 -90 3.58882 0.735262 -0.897051 7.18952 1.4124 -1.83858 7.18953 1.41283 -1.83864 15.4866 7.17485 -9.22397 -16.6176 1.7817 21.0349 120.092 75.5343 58.4939 4.90066 -6.30606 -2.20942 -167.277 84.4999 48.8109 158.202 -5.20772 -31.8089 2.31421e-006 18.2158 3.21387e-005 -0.520582 4.53686 7.5556 5.47465e-007 6.92151 5.67486e-007 -2.05504 0.00811992 -0.456614 -72.0648 39.0385 39.3397 33.3638 2.10362 14.835 0.588947 0.308273 6.35287 -99.6409 81.413 100.35 -0.0181409 2.7642e-005 -0.117315 -0.124139 0.00241095 -0.799296 -79.8382 79.5773 80.5374 -0.000225776 -0.000221049 2.21705e-005 -0.000956227 0.000122724 -2.73531e-005 -66.7416 80.4058 67.2171 -0.000437132 1.58131e-005 -2.73453e-005 -0.000136604 -0.000109471 -5.46748e-005 -6.42159 81.2158 8.01779 -0.000218575 1.67062e-005 0.000212109 0.000901572 -0.000185075 -0.000218609 -59.9282 75.5373 58.5147 1.46602 -1.28449 -0.319978 -167.277 84.4999 48.8109 -162.652 -21.9126 -3.5238 9.36937e-006 -4.28559 2.83648e-005 -51.0152 18.4301 0.497907 -1.13454e-005 26.985 5.84062e-006 19.1867 1.86814 11.0198 -72.0648 39.0385 39.3397 33.3638 2.10361 14.835 0.588946 0.308273 6.35287 -99.6409 81.413 100.35 -0.0181409 3.01558e-005 -0.117315 -0.124139 0.00241123 -0.799296 -79.8382 79.5773 80.5374 -0.000260644 -0.000218491 2.35959e-005 -0.000956224 0.000123097 -2.72863e-005 -66.7416 80.4058 67.2171 -0.00043713 1.49571e-005 -2.72962e-005 -0.0001366 -0.000109181 -5.46084e-005 -6.42159 81.2158 8.01779 -0.000218556 1.96735e-005 0.000212319 0.000901596 -0.000191118 -0.000218536 0.000811311 0.56661 89.91 7.79553 -11.7531 -11.9731 -2.1439e-006 -5.41916 -1.20359e-007 30.7421 4.47167 2.81277 1.96515e-007 6.65745 2.1668e-007 -65.0243 20.6679 -12.8357 -35.4947 5.18666e-007 -8.20765e-008 -180 -0.566579 -90.09 3.32769 -6.26398 -12.8291 9.94429e-007 2.73073 -1.04039e-008 34.7144 -2.90012 1.67229 3.0449e-007 -4.4174 -2.65968e-007 -66.8592 17.5816 -10.7015 -35.4947 -2.34896e-008 1.72072e-008 
-322.744 165.739 0.494446 110.942 -2.39582 87.4298 -180 4.29621e-031 -90 3.58747 0.74545 -0.889926 7.18691 1.43322 -1.82498 7.18691 1.43365 -1.82503 15.5996 7.38088 -9.35628 -16.5355 2.02844 20.932 120.092 75.5343 58.4939 4.59141 -6.40318 -2.20235 -167.277 84.4999 48.8109 158.041 -5.22217 -32.1997 2.34418e-006 18.165 3.21293e-005 -0.58691 4.92017 7.75971 5.4164e-007 7.50459 5.68218e-007 -2.03224 0.0153995 -0.86669 -72.0648 39.0385 39.3397 33.3638 2.10362 14.835 0.588947 0.308273 6.35287 -99.6409 81.413 100.35 -0.0181409 2.7642e-005 -0.117315 -0.124139 0.00241095 -0.799296 -79.8382 79.5773 80.5374 -0.000225776 -0.000221049 2.21705e-005 -0.000956227 0.000122724 -2.73531e-005 -66.7416 80.4058 67.2171 -0.000437132 1.58131e-005 -2.73453e-005 -0.000136604 -0.000109471 -5.46748e-005 -6.42159 81.2158 8.01779 -0.000218575 1.67062e-005 0.000212109 0.000901572 -0.000185075 -0.000218609 -59.9282 75.5373 58.5147 1.47427 -1.09453 -0.264669 -167.277 84.4999 48.8109 -162.391 -21.98 -3.50564 9.40161e-006 -4.35052 2.83672e-005 -51.2559 18.4568 0.499677 -1.13499e-005 27.0243 5.84266e-006 19.2929 1.90702 11.1845 -72.0648 39.0385 39.3397 33.3638 2.10361 14.835 0.588946 0.308273 6.35287 -99.6409 81.413 100.35 -0.0181409 3.01558e-005 -0.117315 -0.124139 0.00241123 -0.799296 -79.8382 79.5773 80.5374 -0.000260644 -0.000218491 2.35959e-005 -0.000956224 0.000123097 -2.72863e-005 -66.7416 80.4058 67.2171 -0.00043713 1.49571e-005 -2.72962e-005 -0.0001366 -0.000109181 -5.46084e-005 -6.42159 81.2158 8.01779 -0.000218556 1.96735e-005 0.000212319 0.000901596 -0.000191118 -0.000218536 0.000811311 0.56661 89.91 7.81799 -11.7651 -11.9289 -2.14402e-006 -5.47809 -1.20371e-007 30.7112 4.44633 2.75697 1.9666e-007 6.61917 2.16663e-007 -65.111 20.4282 -12.6758 -35.4947 5.16578e-007 -7.70642e-008 -180 -0.566579 -90.09 3.28631 -6.16519 -12.8021 9.9445e-007 2.84433 -1.04049e-008 34.7233 -2.92803 1.67275 3.04295e-007 -4.4593 -2.65983e-007 -66.8963 17.4996 -10.6488 -35.4947 -2.21672e-008 1.66173e-008 
